<svg width="24" height="24" viewBox="0 0 24 24" fill="none" xmlns="http://www.w3.org/2000/svg">
<path d="M12 23C8.94444 23 6.34722 21.9306 4.20833 19.7917C2.06944 17.6528 1 15.0556 1 12C1 8.94444 2.06944 6.34722 4.20833 4.20833C6.34722 2.06944 8.94444 1 12 1C12.163 1 12.3361 1.00509 12.5194 1.01528C12.7028 1.02546 12.937 1.04074 13.2222 1.06111C12.4889 1.71296 11.9185 2.51759 11.5111 3.475C11.1037 4.43241 10.9 5.44074 10.9 6.5C10.9 8.33333 11.5417 9.89167 12.825 11.175C14.1083 12.4583 15.6667 13.1 17.5 13.1C18.5593 13.1 19.5676 12.9116 20.525 12.5347C21.4824 12.1579 22.287 11.6333 22.9389 10.9611C22.9593 11.2056 22.9745 11.4042 22.9847 11.5569C22.9949 11.7097 23 11.8574 23 12C23 15.0556 21.9306 17.6528 19.7917 19.7917C17.6528 21.9306 15.0556 23 12 23ZM12 21.1667C14.2204 21.1667 16.1556 20.4792 17.8056 19.1042C19.4556 17.7292 20.4843 16.1148 20.8917 14.2611C20.3824 14.4852 19.8375 14.6532 19.2569 14.7653C18.6764 14.8773 18.0907 14.9333 17.5 14.9333C15.1574 14.9333 13.1662 14.1134 11.5264 12.4736C9.88657 10.8338 9.06667 8.84259 9.06667 6.5C9.06667 6.01111 9.11759 5.48657 9.21944 4.92639C9.3213 4.3662 9.50463 3.72963 9.76944 3.01667C7.77315 3.56667 6.11806 4.68194 4.80417 6.3625C3.49028 8.04306 2.83333 9.92222 2.83333 12C2.83333 14.5463 3.72454 16.7106 5.50694 18.4931C7.28935 20.2755 9.4537 21.1667 12 21.1667Z" fill="black"/>
</svg>
